<mxfile host="app.diagrams.net" agent="Mozilla/5.0 (Windows NT 10.0; Win64; x64; rv:131.0) Gecko/20100101 Firefox/131.0" version="24.8.0">
  <diagram name="Page-1" id="szRa9M46_MqwzDp6hY0c">
    <mxGraphModel dx="1687" dy="887" grid="1" gridSize="10" guides="1" tooltips="1" connect="1" arrows="1" fold="1" page="1" pageScale="1" pageWidth="1169" pageHeight="827" math="0" shadow="0">
      <root>
        <mxCell id="0" />
        <mxCell id="1" parent="0" />
        <mxCell id="_EQhzq1nEWa3m_hh47k0-1" value="Pen-testing Multi-tool" style="ellipse;whiteSpace=wrap;html=1;aspect=fixed;" vertex="1" parent="1">
          <mxGeometry x="505" y="334" width="160" height="160" as="geometry" />
        </mxCell>
        <mxCell id="_EQhzq1nEWa3m_hh47k0-2" value="&lt;div&gt;Pen-tester&lt;/div&gt;&amp;nbsp;/ Red-teamer" style="rounded=1;whiteSpace=wrap;html=1;" vertex="1" parent="1">
          <mxGeometry x="505" y="40" width="159" height="80" as="geometry" />
        </mxCell>
        <mxCell id="_EQhzq1nEWa3m_hh47k0-3" value="Wi-Fi Network" style="rounded=1;whiteSpace=wrap;html=1;" vertex="1" parent="1">
          <mxGeometry x="800" y="120" width="159" height="80" as="geometry" />
        </mxCell>
        <mxCell id="_EQhzq1nEWa3m_hh47k0-4" value="Bluetooth Device" style="rounded=1;whiteSpace=wrap;html=1;" vertex="1" parent="1">
          <mxGeometry x="930" y="374" width="159" height="80" as="geometry" />
        </mxCell>
        <mxCell id="_EQhzq1nEWa3m_hh47k0-5" value="Near Field Communication Chip" style="rounded=1;whiteSpace=wrap;html=1;" vertex="1" parent="1">
          <mxGeometry x="720" y="720" width="159" height="80" as="geometry" />
        </mxCell>
        <mxCell id="_EQhzq1nEWa3m_hh47k0-6" value="Radio Frequency Identification Systems" style="rounded=1;whiteSpace=wrap;html=1;" vertex="1" parent="1">
          <mxGeometry x="310" y="720" width="160" height="80" as="geometry" />
        </mxCell>
        <mxCell id="_EQhzq1nEWa3m_hh47k0-7" value="Infrared Signal" style="rounded=1;whiteSpace=wrap;html=1;" vertex="1" parent="1">
          <mxGeometry x="80" y="374" width="159" height="80" as="geometry" />
        </mxCell>
        <mxCell id="_EQhzq1nEWa3m_hh47k0-10" value="Read / Write NFC Tags" style="text;whiteSpace=wrap;html=1;" vertex="1" parent="1">
          <mxGeometry x="749" y="600" width="130" height="20" as="geometry" />
        </mxCell>
        <mxCell id="_EQhzq1nEWa3m_hh47k0-14" value="Target System" style="rounded=1;whiteSpace=wrap;html=1;" vertex="1" parent="1">
          <mxGeometry x="210" y="120" width="159" height="80" as="geometry" />
        </mxCell>
        <mxCell id="_EQhzq1nEWa3m_hh47k0-20" value="Replicate Device Commands" style="text;whiteSpace=wrap;html=1;" vertex="1" parent="1">
          <mxGeometry x="290" y="424" width="170" height="30" as="geometry" />
        </mxCell>
        <mxCell id="_EQhzq1nEWa3m_hh47k0-22" value="Read / Write RFID Tags" style="text;whiteSpace=wrap;html=1;" vertex="1" parent="1">
          <mxGeometry x="460" y="610" width="160" height="40" as="geometry" />
        </mxCell>
        <mxCell id="_EQhzq1nEWa3m_hh47k0-24" value="" style="endArrow=classic;startArrow=classic;html=1;rounded=0;entryX=1;entryY=0.5;entryDx=0;entryDy=0;exitX=0;exitY=0.5;exitDx=0;exitDy=0;" edge="1" parent="1" source="_EQhzq1nEWa3m_hh47k0-1" target="_EQhzq1nEWa3m_hh47k0-7">
          <mxGeometry width="50" height="50" relative="1" as="geometry">
            <mxPoint x="550" y="450" as="sourcePoint" />
            <mxPoint x="600" y="400" as="targetPoint" />
          </mxGeometry>
        </mxCell>
        <mxCell id="_EQhzq1nEWa3m_hh47k0-25" value="" style="endArrow=classic;startArrow=classic;html=1;rounded=0;entryX=0.5;entryY=0;entryDx=0;entryDy=0;exitX=0;exitY=1;exitDx=0;exitDy=0;" edge="1" parent="1" source="_EQhzq1nEWa3m_hh47k0-1" target="_EQhzq1nEWa3m_hh47k0-6">
          <mxGeometry width="50" height="50" relative="1" as="geometry">
            <mxPoint x="515" y="424" as="sourcePoint" />
            <mxPoint x="249" y="424" as="targetPoint" />
          </mxGeometry>
        </mxCell>
        <mxCell id="_EQhzq1nEWa3m_hh47k0-26" value="" style="endArrow=classic;startArrow=classic;html=1;rounded=0;entryX=1;entryY=1;entryDx=0;entryDy=0;exitX=0.5;exitY=0;exitDx=0;exitDy=0;" edge="1" parent="1" source="_EQhzq1nEWa3m_hh47k0-5" target="_EQhzq1nEWa3m_hh47k0-1">
          <mxGeometry width="50" height="50" relative="1" as="geometry">
            <mxPoint x="525" y="434" as="sourcePoint" />
            <mxPoint x="259" y="434" as="targetPoint" />
          </mxGeometry>
        </mxCell>
        <mxCell id="_EQhzq1nEWa3m_hh47k0-27" value="" style="endArrow=classic;startArrow=classic;html=1;rounded=0;entryX=1;entryY=0.5;entryDx=0;entryDy=0;exitX=0;exitY=0.5;exitDx=0;exitDy=0;" edge="1" parent="1" source="_EQhzq1nEWa3m_hh47k0-4" target="_EQhzq1nEWa3m_hh47k0-1">
          <mxGeometry width="50" height="50" relative="1" as="geometry">
            <mxPoint x="535" y="444" as="sourcePoint" />
            <mxPoint x="269" y="444" as="targetPoint" />
          </mxGeometry>
        </mxCell>
        <mxCell id="_EQhzq1nEWa3m_hh47k0-28" value="" style="endArrow=classic;startArrow=classic;html=1;rounded=0;entryX=0.5;entryY=1;entryDx=0;entryDy=0;exitX=0;exitY=0;exitDx=0;exitDy=0;" edge="1" parent="1" source="_EQhzq1nEWa3m_hh47k0-1" target="_EQhzq1nEWa3m_hh47k0-14">
          <mxGeometry width="50" height="50" relative="1" as="geometry">
            <mxPoint x="515" y="424" as="sourcePoint" />
            <mxPoint x="249" y="424" as="targetPoint" />
          </mxGeometry>
        </mxCell>
        <mxCell id="_EQhzq1nEWa3m_hh47k0-29" value="" style="endArrow=classic;startArrow=classic;html=1;rounded=0;entryX=0.5;entryY=0;entryDx=0;entryDy=0;exitX=0.5;exitY=1;exitDx=0;exitDy=0;" edge="1" parent="1" source="_EQhzq1nEWa3m_hh47k0-2" target="_EQhzq1nEWa3m_hh47k0-1">
          <mxGeometry width="50" height="50" relative="1" as="geometry">
            <mxPoint x="525" y="434" as="sourcePoint" />
            <mxPoint x="259" y="434" as="targetPoint" />
          </mxGeometry>
        </mxCell>
        <mxCell id="_EQhzq1nEWa3m_hh47k0-30" value="" style="endArrow=classic;startArrow=classic;html=1;rounded=0;entryX=1;entryY=0;entryDx=0;entryDy=0;exitX=0.5;exitY=1;exitDx=0;exitDy=0;" edge="1" parent="1" source="_EQhzq1nEWa3m_hh47k0-3" target="_EQhzq1nEWa3m_hh47k0-1">
          <mxGeometry width="50" height="50" relative="1" as="geometry">
            <mxPoint x="595" y="130" as="sourcePoint" />
            <mxPoint x="595" y="344" as="targetPoint" />
          </mxGeometry>
        </mxCell>
        <mxCell id="_EQhzq1nEWa3m_hh47k0-31" value="Pair with Device &amp;amp; Data Capture" style="text;whiteSpace=wrap;html=1;" vertex="1" parent="1">
          <mxGeometry x="709.25" y="419" width="180.5" height="40" as="geometry" />
        </mxCell>
        <mxCell id="_EQhzq1nEWa3m_hh47k0-33" value="&lt;div&gt;Exploit Vulnerabilities&lt;/div&gt;" style="text;whiteSpace=wrap;html=1;" vertex="1" parent="1">
          <mxGeometry x="339" y="65" width="121" height="30" as="geometry" />
        </mxCell>
        <mxCell id="_EQhzq1nEWa3m_hh47k0-34" value="&lt;div&gt;Scan &amp;amp; Exploit&lt;/div&gt;" style="text;whiteSpace=wrap;html=1;" vertex="1" parent="1">
          <mxGeometry x="759.5" y="280" width="80" height="30" as="geometry" />
        </mxCell>
        <mxCell id="_EQhzq1nEWa3m_hh47k0-35" value="" style="endArrow=classic;startArrow=classic;html=1;rounded=0;entryX=0;entryY=0.5;entryDx=0;entryDy=0;exitX=1;exitY=0.5;exitDx=0;exitDy=0;" edge="1" parent="1" source="_EQhzq1nEWa3m_hh47k0-14" target="_EQhzq1nEWa3m_hh47k0-2">
          <mxGeometry width="50" height="50" relative="1" as="geometry">
            <mxPoint x="550" y="450" as="sourcePoint" />
            <mxPoint x="600" y="400" as="targetPoint" />
          </mxGeometry>
        </mxCell>
        <mxCell id="_EQhzq1nEWa3m_hh47k0-36" value="" style="endArrow=classic;startArrow=classic;html=1;rounded=0;entryX=1;entryY=0.5;entryDx=0;entryDy=0;exitX=0;exitY=0.5;exitDx=0;exitDy=0;" edge="1" parent="1" source="_EQhzq1nEWa3m_hh47k0-3" target="_EQhzq1nEWa3m_hh47k0-2">
          <mxGeometry width="50" height="50" relative="1" as="geometry">
            <mxPoint x="550" y="450" as="sourcePoint" />
            <mxPoint x="600" y="400" as="targetPoint" />
          </mxGeometry>
        </mxCell>
        <mxCell id="_EQhzq1nEWa3m_hh47k0-37" value="Monitor" style="text;whiteSpace=wrap;html=1;" vertex="1" parent="1">
          <mxGeometry x="730" y="80" width="121" height="30" as="geometry" />
        </mxCell>
        <mxCell id="_EQhzq1nEWa3m_hh47k0-39" value="Gather data &amp;amp; exploit using" style="text;whiteSpace=wrap;html=1;" vertex="1" parent="1">
          <mxGeometry x="609" y="220" width="121" height="30" as="geometry" />
        </mxCell>
        <mxCell id="_EQhzq1nEWa3m_hh47k0-40" value="Monitor &amp;amp; attack" style="text;whiteSpace=wrap;html=1;" vertex="1" parent="1">
          <mxGeometry x="300" y="280" width="121" height="30" as="geometry" />
        </mxCell>
      </root>
    </mxGraphModel>
  </diagram>
</mxfile>
